<svg id="Layer_1" data-name="Layer 1" xmlns="http://www.w3.org/2000/svg" viewBox="0 0 2342.32 1532.47"><defs><style>.cls-1,.cls-19,.cls-23{fill:none;stroke-miterlimit:10;}.cls-1{stroke:#f0f0f0;stroke-width:4.26px;}.cls-2{fill:#f0f0f0;}.cls-3{fill:#6f3428;}.cls-4{fill:#f9b384;}.cls-11,.cls-5{fill:#e28b6d;}.cls-17,.cls-5,.cls-7{opacity:0.6;}.cls-16,.cls-6,.cls-8{fill:#ee6f57;}.cls-7,.cls-9{fill:#ae5140;}.cls-8{opacity:0.3;}.cls-10,.cls-17{fill:#102048;}.cls-12,.cls-24{fill:#fff;}.cls-13{fill:#708cd5;}.cls-14,.cls-22{fill:#fbc343;}.cls-15{fill:#1f3c88;}.cls-16,.cls-22{opacity:0.2;}.cls-18{fill:#d3dfff;}.cls-19{stroke:#102048;stroke-width:6px;}.cls-20{fill:#c6eae9;}.cls-21{fill:#8cbfbe;}.cls-23{stroke:#fbc343;stroke-width:8.53px;}.cls-24{opacity:0.8;}</style></defs><path class="cls-1" d="M444.75,1182.54c-12.61,251.63,155.41,380.83,397.75,411.53,271.84,34.42,551-12,821.65-35.63,102-8.9,204.28-15.59,306.71-15,96.52.53,201,27.14,295.82,12.41,237-36.81,359.17-281.72,322.24-495.32-22.9-132.45-108.91-259-261.14-250.61-107,5.92-201.77,52.39-303.93,77.56a747.59,747.59,0,0,1-409.47-15.32c-65.9-21.58-128.75-52.19-192.88-79-127.73-53.31-262.8-91.78-400.35-93.89s-278.11,34-389.3,118.62C514.59,907.09,451.8,1042.08,444.75,1182.54Z" transform="translate(-356.35 -247.13)"/><path class="cls-2" d="M2545,1258.44C2557.54,1507,2390.4,1634.66,2149.33,1665c-270.42,34-548.08-11.86-817.36-35.19-101.44-8.79-203.21-15.4-305.1-14.84-96,.52-200,26.8-294.28,12.25C496.8,1590.84,375.3,1348.89,412,1137.87c17.16-98.58,55.06-207.64,140.27-267.51C638,810.15,737.68,825.55,831.63,851.7c171.09,47.61,357.51,136.95,538.79,102,103.89-20,194.44-78.87,293.11-114.08,98.38-35.1,203.49-57,308.08-58.6,136.79-2.13,276.66,33.6,387.27,117.18C2475.53,986.33,2538,1119.68,2545,1258.44Z" transform="translate(-356.35 -247.13)"/><path class="cls-3" d="M2371.89,1466.91s-94.23,66.45-202.47,8.87l101.23-56.49Z" transform="translate(-356.35 -247.13)"/><path class="cls-3" d="M1678.12,1022.78s-91.68,171.94-63,222.73l104.39-58Z" transform="translate(-356.35 -247.13)"/><path class="cls-4" d="M1638.65,1197.33a319.3,319.3,0,0,1-33.14-28.69c-20.89-20.73-40.12-44.78-57.65-70.45v0c-11.77-17.23-22.77-35.23-33-53.44-29.47-52.53-52.5-106.9-68.87-150.44-17.1-45.42-27-79.11-29.68-86.82a8.27,8.27,0,0,0-.64-1.62l49.59-142.39c24-38.38,37.4,86.18,37.4,86.18,6.61-3.88,14.63-15.26,19.36-21.4,5.33-7,9.43,4,10.15,8,4.14,22.9-14.28,66.44-14.28,66.44l118.25,173.3a239.3,239.3,0,0,0,24.13,29.89,232.43,232.43,0,0,0,17.83,17C1688.63,1067.36,1687.56,1153.28,1638.65,1197.33Z" transform="translate(-356.35 -247.13)"/><path class="cls-5" d="M1638.65,1197.33a319.3,319.3,0,0,1-33.14-28.69c37.12-42.52,65.5-113.14,72.63-145.84,5.63,6-6.23-5.34,0,0C1688.63,1067.36,1687.56,1153.28,1638.65,1197.33Z" transform="translate(-356.35 -247.13)"/><path class="cls-6" d="M2371.9,1466.93c-64.6-12.58-115.52-11.77-158.5-3.24a313.91,313.91,0,0,0-44,12.11l-13,46.61-25.67,92.15-16.67,59.87-15.18,54.37-8.53,30.66H1632.12l72.5-472.66-89.47-41.28A189.62,189.62,0,0,0,1631.1,1216c27.16-61.19,41.75-153.94,47-193.21a234.68,234.68,0,0,0,88.61,47.84c39,11.13,86,20.77,130.06,19.75l4.52-.13c101.79-4,147.21,27,147.21,27,23,4.56,83.07,27.63,135.47,50.7,23.12,10.11,44.74,20.26,61.11,28.79a172.93,172.93,0,0,1,87.81,112.06Z" transform="translate(-356.35 -247.13)"/><path class="cls-7" d="M2213.4,1463.69a313.91,313.91,0,0,0-44,12.11l27.59-99Z" transform="translate(-356.35 -247.13)"/><path class="cls-8" d="M1547.86,1098.15c-11.77-17.23-21-32.8-43.11-72.05C1539.45,1014.22,1560.18,1065.35,1547.86,1098.15Z" transform="translate(-356.35 -247.13)"/><path class="cls-7" d="M2161.4,1504.57l-30.65,110-16.67,59.87-411.21,31.34L1656.13,1624C1956.77,1617.79,2082.57,1574.94,2161.4,1504.57Z" transform="translate(-356.35 -247.13)"/><path class="cls-5" d="M1446,894.27c-17.1-45.42-27-79.11-29.68-86.82l76.94-47.65C1496.23,803.16,1461.93,865,1446,894.27Z" transform="translate(-356.35 -247.13)"/><path class="cls-9" d="M1932.64,1197a78.59,78.59,0,0,0,26.81,40,99.37,99.37,0,0,0,44,19.51,110.93,110.93,0,0,0,48.35-2.08,103.84,103.84,0,0,0,22.81-9,121.57,121.57,0,0,0,20.69-13.66l2.27,2.43a105.1,105.1,0,0,1-20,16.4,110.87,110.87,0,0,1-23.67,11,107,107,0,0,1-52,3.28c-17.23-3.21-33.91-10.61-47.11-22.35a82.58,82.58,0,0,1-16.72-20.25,72.51,72.51,0,0,1-8.71-24.52Z" transform="translate(-356.35 -247.13)"/><path class="cls-4" d="M2119.54,1034.05l-12.75,99.66a73.15,73.15,0,0,1-145.71-9.12A75.78,75.78,0,0,1,1962,1113l2.3-14.59,9-56.84,50.66-2.6Z" transform="translate(-356.35 -247.13)"/><path class="cls-10" d="M1942.11,869.87c1.42-14.7,8.29-32.21,16.12-48.09a102.81,102.81,0,0,1,77.45-56.25c50.31-7.26,115.37-.18,150.79,48.14,39.94,54.48,6.75,163.41-36.07,172.7S1942.11,869.87,1942.11,869.87Z" transform="translate(-356.35 -247.13)"/><path class="cls-11" d="M2073.27,1059.64c-17.1,16.2-56.5,54.11-111.3,53.39l11.3-71.43,50.66-2.6Z" transform="translate(-356.35 -247.13)"/><path class="cls-4" d="M2146.19,895.55l-7.63,39.7-1.88,9.72L2129.17,984l-4.3,22.39-5.33,27.63-26.06,15.65s-7.12,4.78-20.21,9.94a0,0,0,0,1,0,0c-19.75,7.85-53,16.55-95.78,10.92a40.35,40.35,0,0,1-8.44-2c-20.13-6.86-30.45-28-35-54.45-3.33-19.4-3.58-41.62-2.35-63.07,1.92-33.65,7.51-65.42,10.41-81.19,44.82-40,106-47.34,151.38-56.21Z" transform="translate(-356.35 -247.13)"/><path class="cls-10" d="M1942.11,869.87c71.39-56.2,167.56.73,167.56.73s-14.7,88.5,13.73,81.2,57.27-66.48,57.27-66.48l-65.07-93.81L1973.26,816Z" transform="translate(-356.35 -247.13)"/><path class="cls-4" d="M2119.72,954.7c14-24.56,41.21-32.44,55.85-13.81s15.2,77.25-56.78,64.59Z" transform="translate(-356.35 -247.13)"/><path class="cls-11" d="M2000,935.3c-4.63,12.52-11.8,23.67-16.47,35.41-.54,1.42-1.24,3-1.58,4.3a7,7,0,0,0-.37,3.37,4.09,4.09,0,0,0,1.29,2.49,11.43,11.43,0,0,0,3.28,1.94c5.37,2.07,12,2.57,18.49,3.21l.07,2.5c-6.56.87-13.3,1.65-20.45-.42a15.34,15.34,0,0,1-5.31-2.72,10.17,10.17,0,0,1-3.5-5.83,13.18,13.18,0,0,1,.42-6.31,38.81,38.81,0,0,1,1.76-4.93c5.25-12.6,13-23.21,20.14-34.13Z" transform="translate(-356.35 -247.13)"/><path class="cls-10" d="M2047.9,937.94c-1.75,5.9-6.57,9.68-10.76,8.44s-6.17-7-4.42-12.93,6.56-9.69,10.75-8.45S2049.64,932,2047.9,937.94Z" transform="translate(-356.35 -247.13)"/><ellipse class="cls-10" cx="1964.48" cy="932.1" rx="11.15" ry="7.91" transform="translate(157.05 2304.34) rotate(-73.52)"/><path class="cls-10" d="M2021.22,915.16a39.52,39.52,0,0,1,12.67-8.16,31.81,31.81,0,0,1,15.51-2.09,31.45,31.45,0,0,1,14.54,5.8,39.45,39.45,0,0,1,10.27,11l-1.88,1.65a89.64,89.64,0,0,0-11.41-7.95,34.67,34.67,0,0,0-12.31-4.22,34,34,0,0,0-13,.95,75.21,75.21,0,0,0-13,5Z" transform="translate(-356.35 -247.13)"/><path class="cls-10" d="M1983.64,915.5a17.34,17.34,0,0,0-15-8.18,21.66,21.66,0,0,0-8.62,1.92,44.83,44.83,0,0,0-8.27,5l-2-1.56a21.57,21.57,0,0,1,7.52-8.41,20.41,20.41,0,0,1,11.34-3.35,19,19,0,0,1,11.36,3.8,15.06,15.06,0,0,1,6,10Z" transform="translate(-356.35 -247.13)"/><path class="cls-12" d="M1972.85,1007l46.41,1s-25.73,34.9-44.63,2.42Z" transform="translate(-356.35 -247.13)"/><path class="cls-11" d="M2130.84,973.43a34.7,34.7,0,0,1,2.17-11.91,26,26,0,0,1,7-10.62,18,18,0,0,1,12.53-4.65,18.72,18.72,0,0,1,11.66,4.89l-1.26,2.17c-3.62-1.09-7.1-1.83-10.29-1.44a15.66,15.66,0,0,0-8.45,3.82,29.26,29.26,0,0,0-6.25,8.1c-1.74,3.15-3.16,6.57-4.68,10.12Z" transform="translate(-356.35 -247.13)"/><circle class="cls-8" cx="1716.64" cy="740.21" r="32.69"/><path class="cls-8" d="M1957,982.92a32.81,32.81,0,0,1-22.94,31.22c-3.33-19.4-3.58-41.62-2.35-63.07A32.7,32.7,0,0,1,1957,982.92Z" transform="translate(-356.35 -247.13)"/><path class="cls-10" d="M1299.25,846.91s93.08,45.55,75.82,121.14l-61.56,17.23Z" transform="translate(-356.35 -247.13)"/><path class="cls-4" d="M1299.25,846.91c10-9.84,61.21-66.44,59.43-137.17-1.36-53.64,22.42-29.41,25.48,7.6,0,0,13.08-75.7,49.14-68l-10.59,14.51s13.67-25.64,24.7-18.78,1,28.8,1,28.8,5.15-19,14.61-20.47,18.14,28.34-3,106.1c0,0,22.93-22.73,32-26.56s8.45,55.64-55.81,119S1326.5,964.14,1326.5,964.14Z" transform="translate(-356.35 -247.13)"/><path class="cls-13" d="M924.23,1157c2.26,3.49,375-310.13,375-310.13l75.82,121.14-380.48,448Z" transform="translate(-356.35 -247.13)"/><path class="cls-11" d="M1434,649.83c-4.44,6.84-8.55,14-12.33,21.2a235.8,235.8,0,0,0-10.19,22.24,181.68,181.68,0,0,0-7.7,23.16l-1.54,5.91-1.17,6c-1,4-1.22,8-2,12.1l-1.66-.09a116.94,116.94,0,0,1,2.73-24.79,151.51,151.51,0,0,1,7.41-23.86,181.43,181.43,0,0,1,11-22.41,146.75,146.75,0,0,1,14.16-20.49Z" transform="translate(-356.35 -247.13)"/><path class="cls-11" d="M1449.26,674.05c-1.24,6.76-2.7,13.47-4.2,20.16s-3.17,13.35-4.7,20l-5.08,19.93c-1.78,6.62-3.56,13.24-5.55,19.82l-1.63-.35c.89-6.84,2.2-13.59,3.56-20.33s3-13.41,4.6-20.08,3.38-13.31,5.31-19.9,3.84-13.19,6.08-19.7Z" transform="translate(-356.35 -247.13)"/><path class="cls-11" d="M1471.87,656.44c2.43,23.32,1.37,46.85-2.07,70-1,5.78-2,11.57-3.35,17.28-.65,2.87-1.37,5.72-2.19,8.54l-.59,2.13-.27,1a.65.65,0,0,0-.08-.49.7.7,0,0,0-1-.2l1.49-1.32q6.56-5.8,13.25-11.47l6.78-5.6c1.2-.94,2.19-1.75,3.61-2.79a5.34,5.34,0,0,1,8.23,3.58l.43,2.27c.16,1.51.42,3,.44,4.55a38.07,38.07,0,0,1,.05,4.53,39.86,39.86,0,0,1-.29,4.51,81.28,81.28,0,0,1-3.74,17.47,147.44,147.44,0,0,1-15.17,31.92,269.13,269.13,0,0,1-20.76,28.36c-3.76,4.49-7.78,8.74-11.65,13.12l-12.23,12.55-1.19-1.17,11.7-12.93c3.68-4.49,7.51-8.86,11.07-13.44a265.85,265.85,0,0,0,19.91-28.41c5.81-10,11-20.29,14.46-31.21a77.79,77.79,0,0,0,3.46-16.65,37.14,37.14,0,0,0,.24-4.21,39,39,0,0,0-.07-4.19c0-1.4-.28-2.76-.43-4.14l-.39-2c-.12-.65-.15-.59-.34-.83a1.17,1.17,0,0,0-1.42-.13l-3.31,2.54-6.74,5.48q-6.69,5.57-13.25,11.33L1464.7,758a3.31,3.31,0,0,1-5.15-3.54l.31-1.12.59-2.08c.82-2.77,1.54-5.56,2.21-8.37,1.37-5.61,2.51-11.28,3.55-17a317,317,0,0,0,3.92-34.52,255.36,255.36,0,0,0,.08-34.77Z" transform="translate(-356.35 -247.13)"/><path class="cls-14" d="M773.7,1429.36s-128.78-50.8-181.38,46.4c-66.13,122.21,33.24,265.81,33.24,265.81h174.8Z" transform="translate(-356.35 -247.13)"/><path class="cls-10" d="M647.63,1469.43a68.58,68.58,0,0,0-8.6,11.24,92.19,92.19,0,0,0-6.53,12.6,143.19,143.19,0,0,0-8.65,27.07,219.74,219.74,0,0,0-4.41,56.7,274.43,274.43,0,0,0,8.77,56.35,328.77,328.77,0,0,0,19.58,53.79l-1.49.74c-2.18-4.28-4.49-8.52-6.44-12.93-1-2.19-2.07-4.35-3-6.57l-2.83-6.66c-3.54-9-6.73-18.1-9.41-27.38a251.3,251.3,0,0,1-9.42-57.14c-.84-19.33.55-38.85,5.14-57.71a143.78,143.78,0,0,1,9.53-27.46,95.48,95.48,0,0,1,7.21-12.67,64.23,64.23,0,0,1,9.39-11.17Z" transform="translate(-356.35 -247.13)"/><path class="cls-9" d="M1105.91,1003.14c42.24,25.77,71.43,10.45,80-17.37s39.71-132.61-90.62-115.71c0,0-159.72-64.4-227.3,30.61-59.63,83.81-4.92,141.75-96,211.24-63.53,48.46-135.54,133.6,7.31,279.21l154.94-42.69Z" transform="translate(-356.35 -247.13)"/><path class="cls-3" d="M1057.79,1124.66c3.16,14.74,37.34,52.92,51,67.25,41.35,43.29,50.47,124.52-67.41,149.34l-66.32-154.48Z" transform="translate(-356.35 -247.13)"/><polygon class="cls-4" points="707.32 896.84 693.38 961.02 671.71 1060.89 550.82 1035.35 579.26 839.49 702.54 894.71 707.32 896.84"/><path class="cls-11" d="M1138.06,1017.09s34.89,39.12,33.66,49.07-33.66,27.8-33.66,27.8Z" transform="translate(-356.35 -247.13)"/><path class="cls-11" d="M1063.67,1144l-13.94,64.17c-37.19-19.78-64.31-68.74-64.31-68.74l73.48,2.43Z" transform="translate(-356.35 -247.13)"/><path class="cls-4" d="M1146.23,1106.11c-4.9,37.18-17.27,65.75-43.71,68.31-73.09,7.08-178.29-74.79-178.29-74.79l5.67-149.94,79.49-49L1138,924.53c1.54,16.93,9.43,68.7,10.71,120.77C1149.26,1066.28,1148.7,1087.3,1146.23,1106.11Z" transform="translate(-356.35 -247.13)"/><path class="cls-9" d="M1158.26,949.69l-15.86,12.22c-82.69-64.52-65.55,28.42-73.23,58.19s-46.86,21.92-77.44,2.68l-5.45,41.67-91.9,2.9-5.33-116.46,91.64-71.64,169.64,33.09Z" transform="translate(-356.35 -247.13)"/><path class="cls-9" d="M1039.54,1382.12c45.14-24.22,32.34-87.42,14.77-109s-92.23-57.92-101.29-126c-5-37.88,33.26-82.6,33.26-82.6l-77.69-41.68L829,1147.92l60.06,214.93Z" transform="translate(-356.35 -247.13)"/><path class="cls-13" d="M1095.78,1729l-378.88.26c-16.55-242.6,43.92-366.65,96.2-427.59a150.46,150.46,0,0,1,132.79-51.17c43.63,5.37,81.49,26.1,119.87,116.42l-179.35,83.41,115.13,202.72a133.27,133.27,0,0,0,48.53,49.21Z" transform="translate(-356.35 -247.13)"/><path class="cls-15" d="M886.41,1450.33s56.37,225.65,77.27,255.34c21.75,30.92,68.45,23.15,149.84,23.33h0L1010.7,1499.92l-124.29-49.59" transform="translate(-356.35 -247.13)"/><path class="cls-13" d="M1346.37,1667.66l-16.28,60L1113.52,1729h-17.74l-45.71-26.74a133.27,133.27,0,0,1-48.53-49.21L886.41,1450.33l179.35-83.41c19.28,45.24,38.64,108,58.89,195a38.28,38.28,0,0,0,21.92,26.36Z" transform="translate(-356.35 -247.13)"/><path class="cls-4" d="M1010.7,1039.27c-6.51-36.13-49.38-40.91-56.84-16.5s-5.64,66.35,48.19,63.86Z" transform="translate(-356.35 -247.13)"/><path class="cls-11" d="M993.5,1042.11l-6.71-7.66a32.25,32.25,0,0,0-6.94-6.06c-2.45-1.37-4.4-1.76-6.65-.55s-4.52,3.67-6.81,6.23l-2.23-1.12c1-3.51,2.51-7.13,6-9.84a10.56,10.56,0,0,1,6.54-2.19,13.09,13.09,0,0,1,6.36,2,25.61,25.61,0,0,1,8,8.2,38.47,38.47,0,0,1,4.58,9.79Z" transform="translate(-356.35 -247.13)"/><path class="cls-16" d="M1144.34,1118c-1.84.38-36.21-9.49-36.21-41.86,0-17.27,15.12-32,32.39-32a29,29,0,0,1,8.23,1.15C1149.26,1066.28,1148.82,1097.71,1144.34,1118Z" transform="translate(-356.35 -247.13)"/><polygon class="cls-15" points="1412.55 1484.18 961.84 1484.18 1046.98 1117.47 1497.7 1117.47 1412.55 1484.18"/><path class="cls-17" d="M1768.91,1731.32l85.14-366.72c-128.83,298.12-320.26,331.16-535.86,366.72" transform="translate(-356.35 -247.13)"/><ellipse class="cls-12" cx="1586.12" cy="1547.96" rx="32.13" ry="27.04" transform="translate(-811.13 2164.94) rotate(-67.25)"/><path class="cls-4" d="M2327.55,1460.1l-1.36,37.27-6.14,167v.21a85,85,0,0,1-33.35,64.18H2098.9l-392.24,1.32c-7,0-14.15-16.29-3.79-24.35,22.9-17.91,58.76-37.61,83.71-53.56a69.81,69.81,0,0,1,46.39-10.53c27,3.45,65.93,17.14,114.37,2.86a193.86,193.86,0,0,1,25.55-5.72l157.86-24.26,62.13-9.55,1.75-105.25.56-31.85q8.88-2.37,18.21-4.22C2246,1457.2,2283.25,1455.2,2327.55,1460.1Z" transform="translate(-356.35 -247.13)"/><path class="cls-5" d="M2327.55,1460.1l-1.36,37.27c-22.94-8.06-111.56-33.26-131-29.46h0q8.88-2.37,18.21-4.22C2246,1457.2,2283.25,1455.2,2327.55,1460.1Z" transform="translate(-356.35 -247.13)"/><path class="cls-8" d="M2320.05,1664.41v.21a85,85,0,0,1-33.35,64.18h-57.06C2239.62,1673.92,2281.2,1656.86,2320.05,1664.41Z" transform="translate(-356.35 -247.13)"/><path class="cls-11" d="M2169,1607.42a81.38,81.38,0,0,1,20.94-5.81,83.9,83.9,0,0,1,21.88-.3,86.27,86.27,0,0,1,21.28,5,71.62,71.62,0,0,1,19.17,10.4l-1.38,2.08a135.18,135.18,0,0,0-19.54-7.14,122.36,122.36,0,0,0-20.26-4,110.82,110.82,0,0,0-20.61-.6,152.13,152.13,0,0,0-20.71,2.76Z" transform="translate(-356.35 -247.13)"/><rect class="cls-18" x="3.65" y="1482.04" width="2276.13" height="50.44"/><line class="cls-19" x1="3.65" y1="1482.12" x2="2279.77" y2="1482.12"/><path class="cls-20" d="M700.62,840.24a173.42,173.42,0,1,0-75,176.53l60,26.17-28.9-52.54A173.29,173.29,0,0,0,700.62,840.24Z" transform="translate(-356.35 -247.13)"/><path class="cls-12" d="M465,932.45V879.64l-3.08,1.53a22.72,22.72,0,0,1-10.18,2.37,23.11,23.11,0,1,1,10.19-43.87l3.07,1.49V788.41h45.73a26.85,26.85,0,0,0-1.08,7.6,27.39,27.39,0,0,0,54.77,0,26.85,26.85,0,0,0-1.08-7.6h45.73v46.15a27,27,0,0,0-9-1.5,27.37,27.37,0,1,0,9,53.21v46.18Z" transform="translate(-356.35 -247.13)"/><path class="cls-21" d="M606.94,790.54v41.18a29.52,29.52,0,1,0,0,57.39v41.21H467.13V876.21l-6.16,3a20.61,20.61,0,0,1-9.23,2.14A21,21,0,1,1,461,841.58l6.13,3v-54H508a29.22,29.22,0,0,0-.51,5.47,29.52,29.52,0,0,0,59,0,29.22,29.22,0,0,0-.51-5.47h40.9m4.27-4.27h-50.9a24.78,24.78,0,0,1,2,9.74,25.26,25.26,0,0,1-50.51,0,24.78,24.78,0,0,1,2-9.74H462.87v51.48a25.25,25.25,0,1,0-11.13,47.92,24.9,24.9,0,0,0,11.13-2.59v51.51H611.21V883.05a24.82,24.82,0,0,1-11.13,2.62,25.24,25.24,0,1,1,0-50.48,24.8,24.8,0,0,1,11.13,2.59V786.27Z" transform="translate(-356.35 -247.13)"/><path class="cls-18" d="M2351.84,842.33a173.46,173.46,0,1,1,96.11,166l-56.38,33.35,22.24-55.7A173.28,173.28,0,0,1,2351.84,842.33Z" transform="translate(-356.35 -247.13)"/><path class="cls-12" d="M2554.64,926a27.24,27.24,0,0,0-49.15,0h-47.6V873.22l-2.89,1.45a22.73,22.73,0,0,1-10.23,2.4,23.24,23.24,0,1,1,0-46.47A22.75,22.75,0,0,1,2455,833l2.89,1.45V781.68h51.16l-.93-2.66a23.24,23.24,0,1,1,43.86,0l-.93,2.67h51.16V926Z" transform="translate(-356.35 -247.13)"/><path class="cls-13" d="M2530,750.08a21.26,21.26,0,0,1,20.06,28.27l-1.87,5.33h52V924h-44.34a29.25,29.25,0,0,0-51.62,0h-44.36V870l-5.79,2.89a20.74,20.74,0,0,1-9.33,2.19,21.24,21.24,0,1,1,0-42.47,20.6,20.6,0,0,1,9.33,2.16l5.79,2.89v-54h52l-1.87-5.33a21.26,21.26,0,0,1,20-28.27m0-4a25.25,25.25,0,0,0-23.81,33.6h-50.34v51.5a24.75,24.75,0,0,0-11.12-2.58,25.24,25.24,0,1,0,0,50.47,24.77,24.77,0,0,0,11.12-2.61V928h50.9a25.23,25.23,0,0,1,46.55,0h50.87V779.68h-50.34a25.25,25.25,0,0,0-23.83-33.6Z" transform="translate(-356.35 -247.13)"/><path class="cls-22" d="M1536.23,442.5c0,43.77-29.93,85.2-69.64,97.55h-53.71c-41.34-11.32-71.74-52.61-71.74-97.55a97.55,97.55,0,0,1,195.09,0Z" transform="translate(-356.35 -247.13)"/><line class="cls-23" x1="1082.33" x2="1082.33" y2="72.83"/><line class="cls-23" x1="1014.01" y1="93.52" x2="950.17" y2="45.86"/><line class="cls-23" x1="1150.66" y1="93.52" x2="1214.5" y2="45.86"/><line class="cls-23" x1="1047.58" y1="80.03" x2="1034.26" y2="45.86"/><line class="cls-23" x1="1117.09" y1="80.03" x2="1130.4" y2="45.86"/><path class="cls-14" d="M1501.06,454.87c0-33.05-29.63-59.65-65.51-58-31.81,1.45-57.85,25.88-59.18,55.52a55.58,55.58,0,0,0,17.22,42.57c12,11.63,19.29,26.7,19.29,42.8v2.31h53.71v-4.79c0-15.38,6.83-29.83,18-41.14A55.6,55.6,0,0,0,1501.06,454.87Z" transform="translate(-356.35 -247.13)"/><path class="cls-14" d="M1055.48,312.43h53.71a0,0,0,0,1,0,0v1.33a26.86,26.86,0,0,1-26.86,26.86h0a26.86,26.86,0,0,1-26.86-26.86v-1.33A0,0,0,0,1,1055.48,312.43Z"/><circle class="cls-24" cx="1062.33" cy="199.18" r="14.75"/><path class="cls-2" d="M1977.35,603v-33h-15.76a76.23,76.23,0,0,0-10.84-25.65l11.3-11.3-23.35-23.35-11.58,11.57a76.58,76.58,0,0,0-25.37-10.12V494.34h-33v17.33a76.52,76.52,0,0,0-24.37,10.54l-12.58-12.57L1808.42,533l12.85,12.85a76.42,76.42,0,0,0-9.83,24.1h-18.32v33h18.32a76.42,76.42,0,0,0,9.83,24.1l-12.85,12.85,23.35,23.35,12.58-12.57a76.52,76.52,0,0,0,24.37,10.54v17.33h33V661.82a76.58,76.58,0,0,0,25.37-10.12l11.58,11.57,23.35-23.35-11.3-11.3A76.23,76.23,0,0,0,1961.59,603Z" transform="translate(-356.35 -247.13)"/><circle class="cls-12" cx="1885.24" cy="586.46" r="51.55" transform="translate(-218.87 1257.7) rotate(-45)"/><path class="cls-2" d="M2145.16,550.85l7.42-22.74-10.85-3.54a55.48,55.48,0,0,0-1.7-20.1l10.31-5.23-10.83-21.33L2129,483.28a55.4,55.4,0,0,0-15.2-12.67l3.77-11.54-22.74-7.42-3.9,11.93a55.32,55.32,0,0,0-19.15,1.78l-5.83-11.48-21.33,10.83,6,11.73a55.69,55.69,0,0,0-12.19,14.38l-12.61-4.11-7.42,22.74,12.61,4.11a55.24,55.24,0,0,0,1.36,18.8l-11.74,6,10.83,21.33,11.48-5.83a55.63,55.63,0,0,0,14.42,12.74l-3.9,11.93,22.74,7.42,3.77-11.53a55.28,55.28,0,0,0,19.74-1.27l5.37,10.57,21.32-10.83-5.23-10.31a55.42,55.42,0,0,0,13.22-15.23Z" transform="translate(-356.35 -247.13)"/><circle class="cls-12" cx="2085.44" cy="518.78" r="37.33" transform="translate(426.31 1980.73) rotate(-66.65)"/><path class="cls-2" d="M1091.68,617.39l16.65-22.74-10.85-7.95a65.17,65.17,0,0,0,5.47-23.13l13.47-2.08-4.3-27.86-13.8,2.14A65.31,65.31,0,0,0,1086,516l8.45-11.53-22.74-16.66-8.74,11.94a65.39,65.39,0,0,0-22.1-5l-2.32-15-27.86,4.3,2.37,15.33A65.08,65.08,0,0,0,994.09,511l-12.62-9.24-16.65,22.74,12.61,9.24a65.15,65.15,0,0,0-5.37,21.55l-15.33,2.37L961,585.5l15-2.32a65.34,65.34,0,0,0,11.46,19.55l-8.74,11.94,22.74,16.65,8.45-11.54a65.11,65.11,0,0,0,22.58,5.83l2.13,13.81,27.86-4.31-2.08-13.47a65.31,65.31,0,0,0,20.39-12.2Z" transform="translate(-356.35 -247.13)"/><circle class="cls-12" cx="1036.58" cy="559.57" r="43.99" transform="translate(73.94 1322.4) rotate(-87.38)"/><path class="cls-2" d="M888,567.76l16.57-11.91-5.68-7.91a47.25,47.25,0,0,0,9-14.7l9.75,1.6,3.29-20.15-10-1.63a47.26,47.26,0,0,0-4.07-16.39l8.41-6-11.92-16.58-8.7,6.25a47.3,47.3,0,0,0-14.08-8.43L882.32,461l-20.14-3.3-1.82,11.08a47.4,47.4,0,0,0-15.64,3.76l-6.61-9.2-16.58,11.92,6.61,9.19a47.45,47.45,0,0,0-8.54,13.63l-11.09-1.81-3.3,20.14,10.85,1.78a47.17,47.17,0,0,0,3.5,16l-8.7,6.25,11.91,16.58,8.41-6.05a47.21,47.21,0,0,0,14.24,9.09l-1.64,10,20.15,3.3,1.59-9.74a47.35,47.35,0,0,0,16.79-3.82Z" transform="translate(-356.35 -247.13)"/><circle class="cls-12" cx="863.05" cy="515.57" r="31.86" transform="translate(-453.52 -29.32) rotate(-13.62)"/></svg>